HIERARCHY
ROOT hips
{
	OFFSET 0.000000 104.274902 0.000000
	CHANNELS 6 Xposition Yposition Zposition Xrotation Yrotation Zrotation
	JOINT spine
	{
		OFFSET 0.000000 10.181549 0.131524
		CHANNELS 6 Xposition Yposition Zposition Xrotation Yrotation Zrotation
		JOINT chest
		{
			OFFSET 0.000000 9.893990 -1.470706
			CHANNELS 3 Xrotation Yrotation Zrotation
			JOINT upperChest
			{
				OFFSET 0.000000 9.220787 -1.370637
				CHANNELS 3 Xrotation Yrotation Zrotation
				JOINT neck
				{
					OFFSET 0.000000 16.740372 -2.049022
					CHANNELS 6 Xposition Yposition Zposition Xrotation Yrotation Zrotation
					JOINT head
					{
						OFFSET 0.000000 9.617859 1.684976
						CHANNELS 6 Xposition Yposition Zposition Xrotation Yrotation Zrotation
						JOINT headEnd
						{
							OFFSET 0.000000 22.037384 7.501072
							CHANNELS 6 Xposition Yposition Zposition Xrotation Yrotation Zrotation
							End Site
							{
								OFFSET 0.000000 23.106567 -2.828246
							}
						}
					}
				}
				JOINT rightShoulder
				{
					OFFSET -4.570000 11.014877 -2.160840
					CHANNELS 6 Xposition Yposition Zposition Xrotation Yrotation Zrotation
					JOINT rightUpperArm
					{
						OFFSET -10.592867 -0.524796 -2.232105
						CHANNELS 3 Xrotation Yrotation Zrotation
						JOINT rightLowerArm
						{
							OFFSET -27.841497 0.000000 -0.000002
							CHANNELS 3 Xrotation Yrotation Zrotation
							JOINT rightHand
							{
								OFFSET -28.328812 0.000000 -0.000001
								CHANNELS 3 Xrotation Yrotation Zrotation
								JOINT rightThumbProximal
								{
									OFFSET -2.464798 -1.573990 2.681911
									CHANNELS 6 Xposition Yposition Zposition Xrotation Yrotation Zrotation
									JOINT rightThumbIntermediate
									{
										OFFSET -3.244781 -1.873383 1.873376
										CHANNELS 3 Xrotation Yrotation Zrotation
										JOINT rightThumbDistal
										{
											OFFSET -2.646263 -1.527817 1.527818
											CHANNELS 6 Xposition Yposition Zposition Xrotation Yrotation Zrotation
											JOINT rightHandThumb4
											{
												OFFSET -1.994591 -1.151581 1.151575
												CHANNELS 6 Xposition Yposition Zposition Xrotation Yrotation Zrotation
												End Site
												{
													OFFSET -1.860176 -1.142715 1.365483
												}
											}
										}
									}
								}
								JOINT rightIndexProximal
								{
									OFFSET -9.108299 -0.517883 2.259803
									CHANNELS 6 Xposition Yposition Zposition Xrotation Yrotation Zrotation
									JOINT rightIndexIntermediate
									{
										OFFSET -3.699997 0.000000 0.000000
										CHANNELS 3 Xrotation Yrotation Zrotation
										JOINT rightIndexDistal
										{
											OFFSET -2.850006 0.000000 0.000000
											CHANNELS 3 Xrotation Yrotation Zrotation
											JOINT rightHandIndex4
											{
												OFFSET -2.772194 0.000000 0.000000
												CHANNELS 3 Xrotation Yrotation Zrotation
												End Site
												{
													OFFSET -2.772202 0.000000 -0.000484
												}
											}
										}
									}
								}
								JOINT rightMiddleProximal
								{
									OFFSET -9.532501 0.000000 -0.000000
									CHANNELS 6 Xposition Yposition Zposition Xrotation Yrotation Zrotation
									JOINT rightMiddleIntermediate
									{
										OFFSET -3.699997 0.000000 0.000000
										CHANNELS 3 Xrotation Yrotation Zrotation
										JOINT rightMiddleDistal
										{
											OFFSET -2.949997 0.000000 0.000000
											CHANNELS 3 Xrotation Yrotation Zrotation
											JOINT rightHandMiddle4
											{
												OFFSET -2.946594 0.000000 0.000000
												CHANNELS 3 Xrotation Yrotation Zrotation
												End Site
												{
													OFFSET -2.946602 0.000000 -0.000982
												}
											}
										}
									}
								}
								JOINT rightRingProximal
								{
									OFFSET -9.103600 -0.043106 -1.865100
									CHANNELS 6 Xposition Yposition Zposition Xrotation Yrotation Zrotation
									JOINT rightRingIntermediate
									{
										OFFSET -3.379303 0.000000 0.000000
										CHANNELS 3 Xrotation Yrotation Zrotation
										JOINT rightRingDistal
										{
											OFFSET -2.889694 0.000000 0.000000
											CHANNELS 3 Xrotation Yrotation Zrotation
											JOINT rightHandRing4
											{
												OFFSET -2.638802 0.000000 0.000000
												CHANNELS 3 Xrotation Yrotation Zrotation
												End Site
												{
													OFFSET -2.638802 0.000000 0.004218
												}
											}
										}
									}
								}
								JOINT rightLittleProximal
								{
									OFFSET -8.076698 -0.486725 -3.806299
									CHANNELS 6 Xposition Yposition Zposition Xrotation Yrotation Zrotation
									JOINT rightLittleIntermediate
									{
										OFFSET -3.600006 0.000000 0.000000
										CHANNELS 3 Xrotation Yrotation Zrotation
										JOINT rightLittleDistal
										{
											OFFSET -2.099998 0.000000 0.000000
											CHANNELS 3 Xrotation Yrotation Zrotation
											JOINT rightHandPinky4
											{
												OFFSET -2.115791 0.000000 0.000000
												CHANNELS 3 Xrotation Yrotation Zrotation
												End Site
												{
													OFFSET -2.115799 0.000000 0.000174
												}
											}
										}
									}
								}
							}
						}
					}
				}
				JOINT leftShoulder
				{
					OFFSET 4.570400 11.014679 -2.160816
					CHANNELS 6 Xposition Yposition Zposition Xrotation Yrotation Zrotation
					JOINT leftUpperArm
					{
						OFFSET 10.592373 -0.524597 -2.232116
						CHANNELS 3 Xrotation Yrotation Zrotation
						JOINT leftLowerArm
						{
							OFFSET 27.841488 0.000000 0.000001
							CHANNELS 3 Xrotation Yrotation Zrotation
							JOINT leftHand
							{
								OFFSET 28.328808 0.000000 -0.000000
								CHANNELS 3 Xrotation Yrotation Zrotation
								JOINT leftThumbProximal
								{
									OFFSET 2.466103 -1.576202 2.681698
									CHANNELS 6 Xposition Yposition Zposition Xrotation Yrotation Zrotation
									JOINT leftThumbIntermediate
									{
										OFFSET 3.243317 -1.872528 1.872530
										CHANNELS 3 Xrotation Yrotation Zrotation
										JOINT leftThumbDistal
										{
											OFFSET 2.647881 -1.528763 1.528754
											CHANNELS 6 Xposition Yposition Zposition Xrotation Yrotation Zrotation
											JOINT leftHandThumb4
											{
												OFFSET 1.998924 -1.154083 1.154080
												CHANNELS 6 Xposition Yposition Zposition Xrotation Yrotation Zrotation
												End Site
												{
													OFFSET 1.884041 -1.149155 1.337651
												}
											}
										}
									}
								}
								JOINT leftIndexProximal
								{
									OFFSET 9.109299 -0.518005 2.259900
									CHANNELS 6 Xposition Yposition Zposition Xrotation Yrotation Zrotation
									JOINT leftIndexIntermediate
									{
										OFFSET 3.699997 0.000000 0.000000
										CHANNELS 3 Xrotation Yrotation Zrotation
										JOINT leftIndexDistal
										{
											OFFSET 2.850006 0.000000 0.000000
											CHANNELS 3 Xrotation Yrotation Zrotation
											JOINT leftHandIndex4
											{
												OFFSET 2.774895 0.000000 0.000000
												CHANNELS 3 Xrotation Yrotation Zrotation
												End Site
												{
													OFFSET 2.774902 0.000000 -0.000072
												}
											}
										}
									}
								}
								JOINT leftMiddleProximal
								{
									OFFSET 9.533401 0.000000 0.000000
									CHANNELS 6 Xposition Yposition Zposition Xrotation Yrotation Zrotation
									JOINT leftMiddleIntermediate
									{
										OFFSET 3.699997 0.000000 0.000000
										CHANNELS 3 Xrotation Yrotation Zrotation
										JOINT leftMiddleDistal
										{
											OFFSET 2.949997 0.000000 0.000000
											CHANNELS 3 Xrotation Yrotation Zrotation
											JOINT leftHandMiddle4
											{
												OFFSET 2.952896 0.000000 0.000000
												CHANNELS 3 Xrotation Yrotation Zrotation
												End Site
												{
													OFFSET 2.952904 0.000000 0.000165
												}
											}
										}
									}
								}
								JOINT leftRingProximal
								{
									OFFSET 9.104500 -0.042999 -1.865101
									CHANNELS 6 Xposition Yposition Zposition Xrotation Yrotation Zrotation
									JOINT leftRingIntermediate
									{
										OFFSET 3.149994 0.000000 0.000000
										CHANNELS 3 Xrotation Yrotation Zrotation
										JOINT leftRingDistal
										{
											OFFSET 2.950005 0.000000 0.000000
											CHANNELS 3 Xrotation Yrotation Zrotation
											JOINT leftHandRing4
											{
												OFFSET 2.644302 0.000000 0.000000
												CHANNELS 3 Xrotation Yrotation Zrotation
												End Site
												{
													OFFSET 2.644302 0.000000 0.000083
												}
											}
										}
									}
								}
								JOINT leftLittleProximal
								{
									OFFSET 8.077805 -0.486893 -3.806302
									CHANNELS 6 Xposition Yposition Zposition Xrotation Yrotation Zrotation
									JOINT leftLittleIntermediate
									{
										OFFSET 3.600006 0.000000 0.000000
										CHANNELS 3 Xrotation Yrotation Zrotation
										JOINT leftLittleDistal
										{
											OFFSET 2.099998 0.000000 0.000000
											CHANNELS 3 Xrotation Yrotation Zrotation
											JOINT leftHandPinky4
											{
												OFFSET 2.125496 0.000000 0.000000
												CHANNELS 3 Xrotation Yrotation Zrotation
												End Site
												{
													OFFSET 2.125504 0.000000 -0.001254
												}
											}
										}
									}
								}
							}
						}
					}
				}
			}
		}
	}
	JOINT rightUpperLeg
	{
		OFFSET -8.207800 -6.751701 -1.599544
		CHANNELS 6 Xposition Yposition Zposition Xrotation Yrotation Zrotation
		JOINT rightLowerLeg
		{
			OFFSET 0.000004 -44.370152 0.345934
			CHANNELS 3 Xrotation Yrotation Zrotation
			JOINT rightFoot
			{
				OFFSET 0.000004 -44.423664 -3.043535
				CHANNELS 3 Xrotation Yrotation Zrotation
				JOINT rightToes
				{
					OFFSET 0.000001 -8.728691 10.710592
					CHANNELS 3 Xrotation Yrotation Zrotation
					JOINT rightToesEnd
					{
						OFFSET 0.000000 -0.000665 9.278101
						CHANNELS 3 Xrotation Yrotation Zrotation
						End Site
						{
							OFFSET 0.000000 -0.000665 9.278103
						}
					}
				}
			}
		}
	}
	JOINT leftUpperLeg
	{
		OFFSET 8.207800 -6.751701 -1.599544
		CHANNELS 6 Xposition Yposition Zposition Xrotation Yrotation Zrotation
		JOINT leftLowerLeg
		{
			OFFSET 0.000004 -44.370037 0.346940
			CHANNELS 3 Xrotation Yrotation Zrotation
			JOINT leftFoot
			{
				OFFSET 0.000004 -44.423611 -3.044388
				CHANNELS 3 Xrotation Yrotation Zrotation
				JOINT leftToes
				{
					OFFSET 0.000001 -8.728690 10.710592
					CHANNELS 3 Xrotation Yrotation Zrotation
					JOINT leftToesEnd
					{
						OFFSET 0.000000 -0.000680 9.278101
						CHANNELS 3 Xrotation Yrotation Zrotation
						End Site
						{
							OFFSET 0.000000 -0.000680 9.278101
						}
					}
				}
			}
		}
	}
}
MOTION
Frames: 4
Frame Time: 0.033333
0.153336 91.057716 1.228011 11.485621 -8.923428 20.839358 -0.000000 10.181547 0.131528 3.285305 7.171600 2.349464 11.810183 -0.183208 -13.009003 12.009010 -0.241359 -12.825901 0.000001 16.740358 -2.049006 -6.240257 -2.995389 2.795424 -0.000001 9.617846 1.684998 -23.715713 -9.135345 -8.010331 -0.000001 22.037354 7.501071 -0.000000 -0.000000 0.000000 -4.569999 11.014874 -2.160833 3.759594 10.136928 -8.202289 -31.509401 40.115357 94.532427 -0.000025 33.929945 0.000038 19.466635 -3.976356 -14.614354 -2.464797 -1.573999 2.681911 -18.160715 -13.356737 -5.634217 4.916891 -11.673558 -0.444046 -2.646269 -1.527807 1.527820 -0.436669 -9.317686 -3.073241 -1.994590 -1.151579 1.151573 0.000007 0.000002 0.000003 -9.108294 -0.517879 2.259802 -0.023301 4.674888 0.570974 0.097840 -1.164660 9.602994 0.097832 -1.164656 9.602988 0.000001 -0.000000 -0.000000 -9.532496 -0.000001 -0.000002 0.000000 0.000002 -0.000002 0.084570 -1.083401 8.927192 0.084588 -1.083413 8.927180 0.000000 -0.000001 -0.000001 -9.103595 -0.043107 -1.865102 0.000001 0.000001 -0.000002 0.078538 -1.044270 8.601966 0.078539 -1.044258 8.601976 -0.000001 0.000001 0.000000 -8.076698 -0.486714 -3.806298 -0.051386 -6.929631 -0.848685 0.063305 -0.938036 7.721243 0.063306 -0.938040 7.721227 0.000000 0.000001 -0.000000 4.570401 11.014668 -2.160808 1.334759 -14.991719 -1.594070 -8.626617 -22.193803 -59.127903 -0.000005 -44.221978 -0.000015 41.361437 2.296640 -13.144333 2.466084 -1.576206 2.681696 -23.747410 24.860748 3.845281 4.009863 8.774950 0.812063 2.647897 -1.528737 1.528745 0.306290 11.652241 3.490876 1.998921 -1.154082 1.154068 -0.000001 0.000001 0.000001 9.109284 -0.518012 2.259900 -0.100980 -9.731745 -1.185962 0.097509 1.157089 -9.634552 0.097495 1.157088 -9.634564 -0.000000 0.000001 -0.000000 9.533393 0.000008 0.000001 0.000002 -0.001930 0.015987 0.035089 0.695961 -5.776997 0.034916 0.694058 -5.761001 0.000002 -0.000000 0.000000 9.104490 -0.043000 -1.865101 0.000000 -0.000000 0.000001 0.131491 1.342064 -11.193737 0.131515 1.342068 -11.193721 0.000001 -0.000000 -0.000001 8.077802 -0.486900 -3.806300 0.991135 11.662938 -4.329462 -0.005549 -3.695145 -3.487905 0.009333 0.359199 -2.977728 0.000000 0.000000 -0.000000 -8.207799 -6.751713 -1.599544 -48.264111 15.745838 -8.185982 61.922393 -10.126787 -9.952494 -20.659847 -1.607078 8.986023 -4.634803 -0.000004 -0.000001 0.000000 -0.000001 0.000000 8.207801 -6.751722 -1.599539 -34.413430 16.461746 -14.710122 50.226151 9.461998 -1.889296 -24.151615 2.466279 -0.744105 -0.625319 -0.000001 -0.000000 0.000000 -0.000001 0.000000 
0.130344 90.013641 0.737726 13.620718 -5.079613 21.735236 -0.000001 10.181558 0.131525 3.174342 7.295828 2.053056 11.535590 -0.247508 -14.245200 11.754261 -0.307551 -14.058765 0.000000 16.740362 -2.049021 -6.875962 -3.982289 3.820847 -0.000004 9.617854 1.684990 -24.438231 -13.213474 -7.107554 0.000000 22.037369 7.501077 -0.000001 -0.000000 0.000001 -4.570004 11.014875 -2.160845 3.734014 10.083275 -8.356521 -33.825481 41.360996 96.423570 -0.000002 32.761054 0.000034 19.417014 -2.619677 -15.911366 -2.464791 -1.573999 2.681908 -18.160715 -13.356734 -5.634212 4.916890 -11.673563 -0.444036 -2.646272 -1.527801 1.527822 -0.436665 -9.317684 -3.073243 -1.994586 -1.151573 1.151575 -0.000002 -0.000002 -0.000002 -9.108306 -0.517882 2.259800 -0.023307 4.674888 0.570997 0.097825 -1.164667 9.602986 0.097830 -1.164671 9.602979 0.000001 -0.000003 0.000000 -9.532504 -0.000008 -0.000003 -0.000003 0.000002 -0.000008 0.084571 -1.083418 8.927190 0.084578 -1.083398 8.927196 0.000001 0.000005 0.000000 -9.103595 -0.043114 -1.865104 -0.000002 0.000002 -0.000008 0.078538 -1.044254 8.601967 0.078531 -1.044259 8.601968 -0.000001 0.000003 -0.000000 -8.076695 -0.486721 -3.806300 -0.051396 -6.929626 -0.848681 0.063296 -0.938029 7.721244 0.063299 -0.938031 7.721228 0.000000 0.000001 -0.000000 4.570400 11.014698 -2.160819 1.491717 -15.360493 -0.896203 -10.691352 -21.958829 -58.521286 -0.000003 -41.301737 -0.000013 45.007057 2.012264 -12.781968 2.466103 -1.576206 2.681697 -23.747401 24.860745 3.845271 4.009866 8.774951 0.812068 2.647881 -1.528747 1.528750 0.306290 11.652239 3.490875 1.998925 -1.154082 1.154079 -0.000001 0.000001 -0.000000 9.109294 -0.518014 2.259899 -0.100962 -9.731763 -1.185943 0.097507 1.157088 -9.634552 0.097494 1.157089 -9.634563 -0.000000 -0.000001 -0.000001 9.533396 -0.000000 0.000000 0.000000 -0.001927 0.015988 0.035099 0.695966 -5.776971 0.034906 0.694048 -5.761014 -0.000001 -0.000001 -0.000000 9.104500 -0.042997 -1.865098 -0.000001 -0.000000 -0.000000 0.131495 1.342046 -11.193724 0.131490 1.342054 -11.193733 -0.000001 0.000000 0.000000 8.077811 -0.486903 -3.806302 0.991143 11.662926 -4.329457 -0.005514 -3.695154 -3.487913 0.009328 0.359207 -2.977719 -0.000001 0.000000 -0.000000 -8.207796 -6.751717 -1.599543 -51.204794 16.188255 -9.547338 63.773176 -9.776568 -9.939701 -24.304210 -0.761370 7.515478 -3.966314 -0.000008 0.000003 0.000000 0.000000 -0.000000 8.207798 -6.751711 -1.599550 -38.783836 15.659974 -15.289935 52.392137 9.613292 -3.303098 -24.413159 0.978201 -0.396128 -2.048455 -0.000003 -0.000001 -0.000000 -0.000001 0.000000 
-0.081165 88.631615 0.438208 15.149739 -0.820746 22.122780 0.000005 10.181548 0.131523 3.053813 7.224295 1.628728 11.326548 -0.341929 -15.199468 11.557349 -0.394709 -15.016973 0.000001 16.740366 -2.049025 -7.402685 -4.990791 4.857428 -0.000002 9.617845 1.684979 -24.862548 -17.354770 -6.201194 0.000000 22.037354 7.501080 -0.000000 -0.000000 -0.000000 -4.570000 11.014857 -2.160844 3.712563 10.056169 -8.625523 -35.616062 42.522804 97.940432 -0.000012 32.421289 0.000047 19.207819 -1.681285 -16.949021 -2.464797 -1.573986 2.681910 -18.160718 -13.356738 -5.634212 4.916894 -11.673563 -0.444038 -2.646263 -1.527822 1.527820 -0.436668 -9.317683 -3.073244 -1.994601 -1.151587 1.151577 -0.000000 -0.000008 -0.000002 -9.108306 -0.517877 2.259803 -0.023316 4.674926 0.570996 0.097825 -1.164672 9.602992 0.097832 -1.164669 9.602986 -0.000000 0.000000 -0.000000 -9.532499 -0.000001 -0.000001 -0.000002 0.000000 -0.000001 0.084581 -1.083406 8.927188 0.084569 -1.083408 8.927182 -0.000000 0.000001 0.000000 -9.103606 -0.043107 -1.865103 -0.000001 0.000002 -0.000001 0.078533 -1.044251 8.601974 0.078525 -1.044243 8.601979 -0.000000 0.000001 -0.000000 -8.076700 -0.486725 -3.806300 -0.051397 -6.929618 -0.848676 0.063304 -0.938028 7.721222 0.063314 -0.938053 7.721241 0.000000 0.000000 -0.000000 4.570401 11.014668 -2.160817 1.554735 -15.903008 -0.941578 -12.121999 -21.294021 -57.880519 0.000004 -39.902932 0.000004 47.263707 2.402521 -12.614634 2.466085 -1.576218 2.681710 -23.747398 24.860745 3.845275 4.009864 8.774951 0.812071 2.647881 -1.528734 1.528751 0.306296 11.652242 3.490876 1.998924 -1.154091 1.154074 -0.000001 -0.000002 0.000003 9.109285 -0.518009 2.259898 -0.100976 -9.731756 -1.185959 0.097509 1.157089 -9.634551 0.097494 1.157090 -9.634561 -0.000001 0.000000 0.000001 9.533394 0.000009 0.000001 0.000003 -0.001926 0.015986 0.035111 0.695941 -5.777015 0.034916 0.694061 -5.761012 -0.000001 -0.000000 -0.000000 9.104479 -0.043001 -1.865101 0.000001 -0.000001 -0.000001 0.131501 1.342070 -11.193725 0.131501 1.342058 -11.193726 0.000001 -0.000000 0.000000 8.077799 -0.486896 -3.806300 0.991143 11.662933 -4.329459 -0.005534 -3.695167 -3.487908 0.009325 0.359189 -2.977733 0.000001 -0.000000 -0.000000 -8.207800 -6.751716 -1.599536 -54.275709 16.482990 -11.813680 66.656663 -9.025865 -9.863020 -26.321821 -0.019809 8.631497 -3.102176 -0.000005 0.000001 -0.000000 -0.000000 -0.000000 8.207801 -6.751720 -1.599551 -42.759747 15.580580 -16.074775 55.226311 8.143454 -3.752368 -25.159736 0.178913 0.219161 -3.380485 -0.000007 0.000002 -0.000000 0.000002 0.000000 
-0.428421 87.027710 0.322681 15.724272 2.924234 22.175913 0.000001 10.181558 0.131520 3.001537 7.032833 1.030450 11.278343 -0.445416 -15.840001 11.512068 -0.485886 -15.665345 0.000002 16.740385 -2.049018 -7.730683 -5.941465 5.854740 0.000001 9.617851 1.684972 -25.136959 -21.247054 -5.226006 0.000001 22.037369 7.501074 -0.000001 0.000000 -0.000000 -4.570000 11.014904 -2.160840 3.691930 10.037923 -8.996620 -36.707605 43.614426 98.854277 -0.000014 32.883041 0.000048 18.188350 -1.952969 -17.441639 -2.464789 -1.573984 2.681908 -18.160717 -13.356726 -5.634210 4.916893 -11.673562 -0.444043 -2.646257 -1.527803 1.527820 -0.436670 -9.317688 -3.073242 -1.994586 -1.151586 1.151573 -0.000002 -0.000002 0.000001 -9.108308 -0.517889 2.259800 -0.023298 4.674884 0.570985 0.097827 -1.164644 9.602986 0.097826 -1.164663 9.602986 -0.000000 0.000001 0.000000 -9.532497 0.000007 -0.000003 -0.000001 0.000002 -0.000002 0.084588 -1.083401 8.927190 0.084571 -1.083402 8.927188 -0.000000 0.000001 0.000000 -9.103596 -0.043116 -1.865102 -0.000001 0.000001 -0.000002 0.078564 -1.044245 8.601963 0.078522 -1.044250 8.601972 0.000000 0.000002 -0.000000 -8.076696 -0.486719 -3.806303 -0.051391 -6.929613 -0.848675 0.063301 -0.938046 7.721246 0.063303 -0.938026 7.721232 0.000000 0.000000 0.000000 4.570401 11.014688 -2.160817 1.547694 -16.643197 -1.467363 -13.276732 -20.575416 -57.309631 0.000010 -39.412510 0.000015 47.892282 3.002859 -12.154157 2.466084 -1.576210 2.681702 -23.747401 24.860729 3.845283 4.009856 8.774952 0.812064 2.647901 -1.528730 1.528750 0.306294 11.652242 3.490873 1.998917 -1.154090 1.154071 0.000004 -0.000001 -0.000000 9.109286 -0.518015 2.259899 -0.100972 -9.731753 -1.185953 0.097510 1.157089 -9.634551 0.097495 1.157089 -9.634562 0.000000 -0.000001 -0.000001 9.533395 0.000000 0.000001 0.000001 -0.001931 0.015980 0.035085 0.695954 -5.777000 0.034913 0.694062 -5.760996 0.000002 -0.000000 -0.000000 9.104495 -0.042999 -1.865099 0.000004 -0.000002 0.000002 0.131501 1.342038 -11.193721 0.131507 1.342065 -11.193731 0.000000 0.000000 0.000001 8.077798 -0.486893 -3.806302 0.991136 11.662929 -4.329455 -0.005533 -3.695163 -3.487922 0.009322 0.359189 -2.977724 -0.000004 0.000000 0.000000 -8.207801 -6.751705 -1.599543 -56.287784 17.210921 -13.599282 70.071730 -8.466102 -9.817402 -28.341622 0.217727 9.965693 -1.902987 0.000001 0.000003 0.000000 0.000000 0.000000 8.207800 -6.751712 -1.599556 -45.709948 15.909204 -16.835880 58.596193 5.774506 -3.642495 -26.396661 0.096437 1.029691 -4.416525 -0.000004 -0.000000 0.000000 0.000001 0.000000 
